# xmcd
#
# Track frame offsets:
#	150
#	20582
#	39182
#	59432
#	75182
#	90032
#	107582
#	126464
#	143414
#	161414
#	180464
#	194714
#	210764
#
# Disc length: 2968 seconds
#
# Revision: 1
# Processed by: cddbd v1.5.2PL0 Copyright (c) Steve Scherf et al.
# Submitted via: audiograbber 1.83.01
#
DISCID=950b960d
DTITLE=Tommy Gilham - Dancin' In The Flames
DYEAR=2008
DGENRE=Country
TTITLE0=Angels Leaving Birmingham
TTITLE1=Dancin' In The Flames
TTITLE2=Been Here All The Time
TTITLE3=If She Only Knew
TTITLE4=Read White and Blue
TTITLE5=Love Lingers On
TTITLE6=Sometimes You Win
TTITLE7=Out Run Love
TTITLE8=Freedom
TTITLE9=Someone To Love
TTITLE10=Nascar Disease
TTITLE11=Left For A Livin'
TTITLE12=Gravel Road
EXTD=
EXTT0=
EXTT1=
EXTT2=
EXTT3=
EXTT4=
EXTT5=
EXTT6=
EXTT7=
EXTT8=
EXTT9=
EXTT10=
EXTT11=
EXTT12=
PLAYORDER=
